<?xml version="1.0" encoding="UTF-8"?>
<!--
  COASTAL WIND 35 — FULL SCALE CONSTRUCTION DETAILS
  Shows: 1) Keel/Bulb attachment, 2) Saildrive installation, 3) Bow thruster tunnel,
         4) Mast step + compression post, 5) Chainplate detail, 6) Midship cross-section
  Scale: various (each detail noted)
-->
<svg xmlns="http://www.w3.org/2000/svg"
     width="1400" height="1100"
     viewBox="-200 -500 15000 12000">

  <title>Coastal Wind 35 — Construction Details</title>

  <defs>
    <style>
      .structure{ stroke:#000; stroke-width:8; fill:#e8e8e0; }
      .grp      { stroke:#000; stroke-width:6; fill:#d4c890; fill-opacity:0.8; }
      .steel    { stroke:#000; stroke-width:6; fill:#a0a0b8; }
      .lead     { stroke:#000; stroke-width:6; fill:#888890; }
      .rubber   { stroke:#000; stroke-width:5; fill:#444; fill-opacity:0.7; }
      .label    { font-family:Arial,sans-serif; font-size:130px; fill:#000; }
      .labelSm  { font-family:Arial,sans-serif; font-size:95px; fill:#222; }
      .labelXs  { font-family:Arial,sans-serif; font-size:75px; fill:#333; }
      .title    { font-family:Arial,sans-serif; font-size:160px; fill:#000; font-weight:bold; }
      .subtitle { font-family:Arial,sans-serif; font-size:120px; fill:#000; font-weight:bold; }
      .note     { font-family:Arial,sans-serif; font-size:70px; fill:#444; font-style:italic; }
      .dim      { stroke:#000; stroke-width:3; fill:none; }
      .arrow    { marker-end:url(#arrowBlk); }
      .bolt     { fill:#666; stroke:#000; stroke-width:4; }
      .hatch    { fill:url(#grpHatch); stroke:#000; stroke-width:6; }
    </style>
    <marker id="arrowBlk" markerWidth="10" markerHeight="7" refX="9" refY="3.5" orient="auto">
      <polygon points="0 0, 10 3.5, 0 7" fill="#000"/>
    </marker>
    <pattern id="grpHatch" patternUnits="userSpaceOnUse" width="40" height="40" patternTransform="rotate(45)">
      <line x1="0" y1="0" x2="0" y2="40" stroke="#888" stroke-width="8"/>
    </pattern>
    <pattern id="leadHatch" patternUnits="userSpaceOnUse" width="30" height="30" patternTransform="rotate(30)">
      <line x1="0" y1="0" x2="0" y2="30" stroke="#666" stroke-width="10"/>
    </pattern>
  </defs>

  <!-- TITLE BLOCK -->
  <rect x="-150" y="-450" width="14800" height="280" fill="#f0f0f0" stroke="#000" stroke-width="4"/>
  <text class="title" x="7200" y="-270" text-anchor="middle">COASTAL WIND 35 — CONSTRUCTION DETAILS</text>
  <text class="labelSm" x="7200" y="-160" text-anchor="middle">Keel/Bulb | Saildrive | Bow Thruster | Mast Step | Chainplate | Midship Section</text>
  <text class="labelXs" x="14500" y="-270" text-anchor="end">Sheet 5 of 5</text>

  <!-- ==========================================================
       DETAIL 1: KEEL / BULB ATTACHMENT (x=0, y=0, scale 1:10)
       ========================================================== -->
  <text class="subtitle" x="0" y="200">DETAIL 1 — KEEL/BULB ATTACHMENT (Scale 1:10)</text>

  <!-- Hull bottom (cross-section, centred, at top of detail) -->
  <rect class="structure" x="300" y="300" width="2600" height="300" rx="20"/>
  <text class="labelXs" x="1600" y="480">HULL BOTTOM — GRP 22mm SOLID LAMINATE</text>

  <!-- Keel stub (solid GRP block) -->
  <rect class="grp" x="900" y="600" width="1400" height="500" rx="10"/>
  <text class="labelXs" x="1600" y="870">KEEL STUB — SOLID GRP 300mm</text>

  <!-- Keel bolt holes (8 bolts, shown as section) -->
  <circle class="bolt" cx="1050" cy="750" r="50"/>
  <circle class="bolt" cx="1250" cy="750" r="50"/>
  <circle class="bolt" cx="1450" cy="750" r="50"/>
  <circle class="bolt" cx="1650" cy="750" r="50"/>
  <circle class="bolt" cx="1850" cy="750" r="50"/>
  <circle class="bolt" cx="2050" cy="750" r="50"/>
  <circle class="bolt" cx="2150" cy="750" r="50"/>
  <circle class="bolt" cx="2300" cy="750" r="50"/>
  <text class="labelXs" x="1600" y="1000">8× M36 AQUAMET 22 SS KEEL BOLTS</text>

  <!-- Fin keel (tapered, mild steel or lead) -->
  <path class="lead" d="M 900,1100 L 900,2200 C 1100,2200 1600,2200 2200,2200 L 2300,1100 Z"/>
  <text class="labelSm" x="1600" y="1700">FIN KEEL</text>
  <text class="labelXs" x="1600" y="1830">600 kg (steel fin)</text>
  <text class="labelXs" x="1600" y="1950">NACA 0010 section</text>

  <!-- Bulb (streamlined ellipse) -->
  <ellipse cx="1600" cy="2400" rx="1000" ry="250" fill="url(#leadHatch)" stroke="#000" stroke-width="8"/>
  <text class="labelSm" x="1600" y="2430" text-anchor="middle" fill="#fff">LEAD BULB 2400 kg</text>
  <text class="labelXs" x="1600" y="2680" text-anchor="middle">Span: ~2000mm · Height: 200mm</text>

  <!-- Bedding compound -->
  <rect x="900" y="1080" width="1400" height="40" fill="#333"/>
  <text class="labelXs" x="400" y="1110" text-anchor="end">SIKAFLEX 291</text>
  <text class="labelXs" x="400" y="1190" text-anchor="end">(BEDDING)</text>

  <!-- Keel bolt washers / backing plates -->
  <rect x="850" y="280" width="1500" height="60" fill="#a0a0b8" stroke="#000" stroke-width="4"/>
  <text class="labelXs" x="1600" y="250" text-anchor="middle">SS BACKING PLATE + NUT PLATE</text>

  <!-- Dimension: bolt depth -->
  <line class="dim" x1="2500" y1="300" x2="2500" y2="1100"/>
  <line class="dim" x1="2420" y1="300" x2="2580" y2="300"/>
  <line class="dim" x1="2420" y1="1100" x2="2580" y2="1100"/>
  <text class="labelXs" x="2600" y="700">BOLT</text>
  <text class="labelXs" x="2600" y="800">450mm</text>

  <!-- Dimension: fin height -->
  <line class="dim" x1="2500" y1="1100" x2="2500" y2="2200"/>
  <line class="dim" x1="2420" y1="2200" x2="2580" y2="2200"/>
  <text class="labelXs" x="2600" y="1700">FIN</text>
  <text class="labelXs" x="2600" y="1800">1050mm</text>

  <!-- Dimension: bulb -->
  <line class="dim" x1="2500" y1="2200" x2="2500" y2="2650"/>
  <line class="dim" x1="2420" y1="2650" x2="2580" y2="2650"/>
  <text class="labelXs" x="2600" y="2450">BULB</text>
  <text class="labelXs" x="2600" y="2550">200mm</text>

  <!-- Total draft -->
  <line class="dim" x1="2900" y1="300" x2="2900" y2="2650"/>
  <line class="dim" x1="2800" y1="300" x2="3000" y2="300"/>
  <line class="dim" x1="2800" y1="2650" x2="3000" y2="2650"/>
  <text class="label" x="3000" y="1500">TOTAL DRAFT</text>
  <text class="label" x="3000" y="1650">1950mm</text>

  <!-- Note on keel construction -->
  <rect x="0" y="2800" width="3200" height="500" fill="#ffffd0" stroke="#888" stroke-width="3"/>
  <text class="labelXs" x="100" y="2950">CRITICAL NOTES:</text>
  <text class="labelXs" x="100" y="3060">• Torque keel bolts to 350 N·m in cross pattern. Re-torque after 24h.</text>
  <text class="labelXs" x="100" y="3160">• Inspect keel bolt countersunk recesses for corrosion every 3 years.</text>
  <text class="labelXs" x="100" y="3260">• Apply Sikaflex 291 generously — squeeze-out confirms full coverage.</text>

  <!-- ==========================================================
       DETAIL 2: SAILDRIVE INSTALLATION (x=3600, y=0, scale 1:10)
       ========================================================== -->
  <text class="subtitle" x="3600" y="200">DETAIL 2 — SAILDRIVE INSTALLATION (Scale 1:10)</text>

  <!-- Hull cross-section -->
  <rect class="structure" x="3700" y="300" width="2600" height="280" rx="20"/>
  <text class="labelXs" x="5000" y="480">HULL BOTTOM GRP 14mm (saildrive zone +8mm reinf.)</text>

  <!-- GRP reinforcement ring -->
  <rect x="4700" y="250" width="600" height="380" fill="url(#grpHatch)" stroke="#000" stroke-width="8"/>
  <text class="labelXs" x="5000" y="200" text-anchor="middle">GRP REINF. RING</text>
  <text class="labelXs" x="5000" y="160" text-anchor="middle">8× BIAX LAYERS</text>

  <!-- Rubber flexible mount (bellows) -->
  <rect class="rubber" x="4750" y="580" width="500" height="200" rx="10"/>
  <text class="labelXs" x="5000" y="700" text-anchor="middle" fill="#fff">RUBBER BELLOWS</text>
  <text class="labelXs" x="5000" y="790" text-anchor="middle" fill="#fff">(INSPECT ANNUALLY)</text>

  <!-- Saildrive leg (gearbox + prop shaft housing) -->
  <rect class="steel" x="4800" y="780" width="400" height="600" rx="30"/>
  <text class="labelXs" x="5000" y="1050" text-anchor="middle">SAILDRIVE</text>
  <text class="labelXs" x="5000" y="1150" text-anchor="middle">LEG</text>

  <!-- Propeller -->
  <ellipse cx="5000" cy="1480" rx="350" ry="120" fill="url(#grpHatch)" stroke="#000" stroke-width="6" transform="rotate(-30,5000,1480)"/>
  <text class="labelXs" x="5000" y="1680">3-BLADE FOLDING PROP Ø440mm</text>

  <!-- Motor above hull (in engine room) -->
  <rect class="steel" x="4700" y="-100" width="600" height="400" rx="30"/>
  <text class="labelSm" x="5000" y="60" text-anchor="middle">ELECTRIC</text>
  <text class="labelSm" x="5000" y="160" text-anchor="middle">MOTOR</text>
  <text class="labelXs" x="5000" y="260" text-anchor="middle">15kW cont.</text>

  <!-- Access hatch from engine room -->
  <rect x="4650" y="-200" width="700" height="120" fill="#ffccaa" stroke="#c00" stroke-width="5"/>
  <text class="labelXs" x="5000" y="-220" text-anchor="middle" fill="#c00">ACCESS HATCH (REMOVABLE)</text>

  <!-- Dimensions -->
  <line class="dim" x1="5450" y1="580" x2="5450" y2="1380"/>
  <line class="dim" x1="5380" y1="580" x2="5520" y2="580"/>
  <line class="dim" x1="5380" y1="1380" x2="5520" y2="1380"/>
  <text class="labelXs" x="5550" y="1000">LEG 800mm</text>

  <!-- Saildrive position note -->
  <rect x="3600" y="1800" width="3000" height="450" fill="#ffffd0" stroke="#888" stroke-width="3"/>
  <text class="labelXs" x="3700" y="1930">SAILDRIVE SPECS: Oceanvolt AXC 15 or ServoProp 15</text>
  <text class="labelXs" x="3700" y="2040">Opening Ø200mm, centred at x=6800mm from FP</text>
  <text class="labelXs" x="3700" y="2150">Propeller centreline: approx. 800mm below hull baseline</text>
  <text class="labelXs" x="3700" y="2260">MUST remain submerged at 35° heel — verified ✓</text>

  <!-- ==========================================================
       DETAIL 3: BOW THRUSTER TUNNEL (x=7000, y=0, scale 1:5)
       ========================================================== -->
  <text class="subtitle" x="7000" y="200">DETAIL 3 — BOW THRUSTER (Scale 1:5)</text>

  <!-- Hull planform cut-through at bow -->
  <rect class="structure" x="7050" y="300" width="2500" height="1200" rx="40"/>
  <text class="labelXs" x="8300" y="800">HULL SECTION</text>
  <text class="labelXs" x="8300" y="900">AT BOW STATION 1</text>

  <!-- Thruster tunnel (120mm dia, shown as cross-section = rectangle) -->
  <rect x="7050" y="700" width="2500" height="200" fill="#cceecc" stroke="#060" stroke-width="8"/>
  <text class="labelSm" x="8300" y="820" text-anchor="middle" fill="#060">THRUSTER TUNNEL Ø120mm</text>

  <!-- GRP tube lamination callout -->
  <rect x="7050" y="700" width="180" height="200" fill="url(#grpHatch)" stroke="#060" stroke-width="4"/>
  <rect x="9370" y="700" width="180" height="200" fill="url(#grpHatch)" stroke="#060" stroke-width="4"/>
  <text class="labelXs" x="7230" y="1020">GRP TUBE</text>
  <text class="labelXs" x="7230" y="1100">6× BIAX</text>

  <!-- Motor (dry-mounted above hull) -->
  <rect class="steel" x="7900" y="0" width="800" height="400" rx="30"/>
  <text class="labelXs" x="8300" y="180" text-anchor="middle">THRUSTER MOTOR</text>
  <text class="labelXs" x="8300" y="280" text-anchor="middle">3kW ELECTRIC</text>
  <!-- Motor shaft to prop -->
  <line x1="8300" y1="400" x2="8300" y2="700" stroke="#333" stroke-width="12"/>

  <!-- Propeller inside tunnel -->
  <ellipse cx="8300" cy="800" rx="200" ry="60" fill="#888" stroke="#000" stroke-width="5"/>
  <text class="labelXs" x="8300" y="770" text-anchor="middle" fill="#fff">PROP</text>

  <!-- Fair entry / exit -->
  <path d="M 7050,700 C 7000,720 6950,760 6900,800 C 6950,840 7000,880 7050,900"
        stroke="#060" stroke-width="6" fill="none" stroke-dasharray="15,10"/>
  <path d="M 9600,700 C 9650,720 9700,760 9750,800 C 9700,840 9650,880 9600,900"
        stroke="#060" stroke-width="6" fill="none" stroke-dasharray="15,10"/>
  <text class="labelXs" x="6800" y="850" text-anchor="end" fill="#060">FAIRED</text>
  <text class="labelXs" x="6800" y="930" text-anchor="end" fill="#060">FLUSH</text>

  <!-- Depth below DWL callout -->
  <line class="dim" x1="9700" y1="300" x2="9700" y2="800"/>
  <text class="labelXs" x="9800" y="580">MIN 200mm</text>
  <text class="labelXs" x="9800" y="660">BELOW DWL</text>

  <!-- Note -->
  <rect x="7000" y="1600" width="2700" height="380" fill="#ffffd0" stroke="#888" stroke-width="3"/>
  <text class="labelXs" x="7100" y="1730">THRUSTER: 3kW 48V DC. Wire 6 AWG (16mm²), fused 63A</text>
  <text class="labelXs" x="7100" y="1840">Position: x=700mm from FP. Tunnel must be FAIRED FLUSH.</text>
  <text class="labelXs" x="7100" y="1950">Sidepower SP55 / Lewmar BTe 120 or equivalent.</text>

  <!-- ==========================================================
       DETAIL 4: MAST STEP + COMPRESSION POST (x=10200, scale 1:10)
       ========================================================== -->
  <text class="subtitle" x="10200" y="200">DETAIL 4 — MAST STEP / COMPRESSION POST (1:10)</text>

  <!-- Masthead area (top of diagram) — mast foot -->
  <rect class="steel" x="10700" y="300" width="400" height="350" rx="10"/>
  <text class="labelXs" x="10900" y="490" text-anchor="middle">MAST</text>
  <text class="labelXs" x="10900" y="580" text-anchor="middle">FOOT</text>

  <!-- Mast step fitting (cast alu) -->
  <rect class="steel" x="10600" y="650" width="600" height="250" rx="20"/>
  <text class="labelXs" x="10900" y="800" text-anchor="middle">MAST STEP</text>
  <text class="labelXs" x="10900" y="890" text-anchor="middle">CAST ALU</text>

  <!-- Deck / coachroof top (at y=900) -->
  <rect class="structure" x="10200" y="900" width="1400" height="180" rx="10"/>
  <text class="labelXs" x="10900" y="1010" text-anchor="middle">DECK (SANDWICH GRP)</text>
  <!-- Mast partner ring -->
  <rect x="10650" y="870" width="500" height="250" fill="url(#grpHatch)" stroke="#000" stroke-width="6"/>
  <text class="labelXs" x="10900" y="860" text-anchor="middle">PARTNER RING 6×BIAX+PLY</text>

  <!-- Compression post (aluminium box section) -->
  <rect class="steel" x="10800" y="1080" width="200" height="1600" rx="5"/>
  <text class="labelXs" x="11100" y="1900">COMP POST</text>
  <text class="labelXs" x="11100" y="1980">Al 100×100×5</text>

  <!-- Cabin top / sole level (at y=2680, the compression post runs from deck to keel stub) -->
  <rect class="structure" x="10200" y="2680" width="1400" height="150" rx="10"/>
  <text class="labelXs" x="10900" y="2760" text-anchor="middle">CABIN SOLE</text>

  <!-- Keel stub (bottom of compression post) -->
  <rect class="grp" x="10500" y="2830" width="800" height="400" rx="10"/>
  <text class="labelXs" x="10900" y="3060" text-anchor="middle">KEEL STUB</text>

  <!-- Dimension: post height -->
  <line class="dim" x1="11300" y1="900" x2="11300" y2="2830"/>
  <line class="dim" x1="11220" y1="900" x2="11380" y2="900"/>
  <line class="dim" x1="11220" y1="2830" x2="11380" y2="2830"/>
  <text class="labelXs" x="11420" y="1900">POST HT</text>
  <text class="labelXs" x="11420" y="2000">~1930mm</text>

  <!-- Design load note -->
  <line x1="10900" y1="300" x2="10900" y2="0" stroke="#c00" stroke-width="6" marker-end="url(#arrowBlk)"/>
  <text class="labelXs" x="10900" y="-30" text-anchor="middle" fill="#c00">COMPRESSION 60 kN max</text>

  <!-- ==========================================================
       DETAIL 5: CHAINPLATE (x=12200, scale 1:5)
       ========================================================== -->
  <text class="subtitle" x="12200" y="200">DETAIL 5 — CHAINPLATE (Scale 1:5)</text>

  <!-- Deck surface -->
  <rect class="structure" x="12250" y="600" width="1400" height="180" rx="10"/>
  <text class="labelXs" x="12950" y="710" text-anchor="middle">DECK</text>

  <!-- Chainplate flat bar (SS 8×60mm) through deck -->
  <rect class="steel" x="12850" y="200" width="200" height="1400" rx="5"/>
  <text class="labelXs" x="13200" y="900">316L SS</text>
  <text class="labelXs" x="13200" y="1000">8×60mm</text>

  <!-- Deck socket / cover plate -->
  <rect x="12820" y="560" width="260" height="230" fill="#ccccaa" stroke="#000" stroke-width="5" rx="5"/>
  <text class="labelXs" x="12950" y="640" text-anchor="middle">DECK SOCKET</text>
  <text class="labelXs" x="12950" y="720" text-anchor="middle">+ POLYSULFIDE</text>

  <!-- Bulkhead (athwartship structural panel) -->
  <rect class="structure" x="12250" y="780" width="1400" height="900" rx="10" opacity="0.7"/>
  <text class="labelXs" x="12600" y="1270">STRUCT. BH</text>
  <text class="labelXs" x="12600" y="1360">18mm PLY</text>

  <!-- GRP tabbing on bulkhead -->
  <rect x="12250" y="780" width="200" height="900" fill="url(#grpHatch)" stroke="#000" stroke-width="4"/>
  <rect x="13450" y="780" width="200" height="900" fill="url(#grpHatch)" stroke="#000" stroke-width="4"/>
  <text class="labelXs" x="12350" y="1500">GRP TAB</text>
  <text class="labelXs" x="12350" y="1580">4×BIAX</text>
  <text class="labelXs" x="12350" y="1660">150mm wide</text>

  <!-- M16 bolts through chainplate + bulkhead -->
  <circle class="bolt" cx="12950" cy="900" r="50"/>
  <circle class="bolt" cx="12950" cy="1100" r="50"/>
  <circle class="bolt" cx="12950" cy="1300" r="50"/>
  <circle class="bolt" cx="12950" cy="1500" r="50"/>
  <text class="labelXs" x="13200" y="1200">4× M16 SS</text>
  <text class="labelXs" x="13200" y="1300">BOLTS</text>

  <!-- Shroud pin at top -->
  <circle cx="12950" cy="250" r="100" fill="none" stroke="#000" stroke-width="8"/>
  <text class="labelXs" x="12950" y="100" text-anchor="middle">SHROUD PIN</text>

  <!-- Design load label -->
  <line x1="12950" y1="250" x2="12950" y2="-50" stroke="#c00" stroke-width="6" marker-end="url(#arrowBlk)"/>
  <text class="labelXs" x="12950" y="-70" text-anchor="middle" fill="#c00">LOAD 6000 N</text>

  <!-- ==========================================================
       DETAIL 6: MIDSHIP CROSS-SECTION (bottom centre, scale 1:15)
       Shows full hull section with headroom, coachroof, sole, keel
       ========================================================== -->
  <text class="subtitle" x="0" y="4200">DETAIL 6 — MIDSHIP CROSS-SECTION (Scale 1:15) — Station 5</text>

  <!-- Outer hull shell -->
  <path class="structure" d="
    M 3500,4600
    C 3200,4700 2800,4900 2600,5200
    C 2400,5600 2300,6100 2350,6600
    C 2400,7000 2600,7400 3000,7800
    C 3200,8000 3600,8200 4000,8400
    C 4500,8600 5000,8700 5500,8700
    C 6000,8700 6500,8600 7000,8400
    C 7400,8200 7800,8000 8000,7800
    C 8400,7400 8600,7000 8650,6600
    C 8700,6100 8600,5600 8400,5200
    C 8200,4900 7800,4700 7500,4600
    L 3500,4600 Z
  "/>

  <!-- GRP hull thickness (inner skin callout) -->
  <path d="
    M 3500,4700
    C 3250,4780 2880,4970 2700,5250
    C 2520,5620 2440,6080 2490,6560
    C 2540,6960 2720,7340 3080,7730
  " stroke="#d4c890" stroke-width="30" fill="none"/>
  <text class="labelXs" x="2300" y="6200" text-anchor="end">GRP TOPSIDES</text>
  <text class="labelXs" x="2300" y="6300" text-anchor="end">8mm total</text>
  <text class="labelXs" x="2300" y="6400" text-anchor="end">(sandwich)</text>

  <!-- Inner hull surface -->
  <path d="
    M 3550,4750
    C 3280,4840 2950,5030 2780,5310
    C 2620,5660 2540,6100 2580,6560
    C 2630,6940 2800,7300 3120,7700
    C 3350,7960 3700,8130 4050,8300
    C 4520,8490 5000,8580 5500,8580
    C 6000,8580 6480,8490 6950,8300
    C 7300,8130 7650,7960 7880,7700
    C 8200,7300 8370,6940 8420,6560
    C 8460,6100 8380,5660 8220,5310
    C 8050,5030 7720,4840 7450,4750
    L 3550,4750 Z
  " fill="#fffff0" stroke="#000" stroke-width="4"/>

  <!-- DECK / SHEER LINE at top (y=4600) -->
  <line x1="3500" y1="4600" x2="7500" y2="4600" stroke="#000" stroke-width="10"/>
  <!-- Coachroof (raises 850mm above deck at CL) -->
  <rect x="3800" y="3750" width="3400" height="850" rx="100" fill="#e0d8c0" stroke="#000" stroke-width="8"/>
  <text class="labelSm" x="5500" y="4210" text-anchor="middle">COACHROOF</text>
  <text class="labelXs" x="5500" y="4360" text-anchor="middle">850mm above deck</text>

  <!-- Cabin sole (1100mm below deck + 850mm coachroof = 1950mm total headroom) -->
  <line x1="2700" y1="6500" x2="8300" y2="6500" stroke="#000" stroke-width="8"/>
  <text class="labelXs" x="2600" y="6530" text-anchor="end">CABIN SOLE</text>

  <!-- HEADROOM DIMENSION (sole to coachroof underside = 1950mm) -->
  <line class="dim" x1="5500" y1="3750" x2="5500" y2="6500"/>
  <line class="dim" x1="5420" y1="3750" x2="5580" y2="3750"/>
  <line class="dim" x1="5420" y1="6500" x2="5580" y2="6500"/>
  <text class="label" x="5700" y="5200">HEADROOM</text>
  <text class="label" x="5700" y="5370">1950mm ✓</text>
  <text class="labelXs" x="5700" y="5510">(180cm person fits)</text>

  <!-- DWL (waterline) -->
  <line x1="2200" y1="6250" x2="8800" y2="6250" stroke="#0000cc" stroke-width="6" stroke-dasharray="40,20"/>
  <text class="labelXs" x="2100" y="6280" text-anchor="end" fill="#0000cc">DWL</text>

  <!-- Keel root (centred at bottom, hull bottom 700mm below DWL = 950mm below sole) -->
  <rect x="4900" y="7200" width="1200" height="1400" fill="url(#leadHatch)" stroke="#000" stroke-width="8"/>
  <text class="labelXs" x="5500" y="7950" text-anchor="middle" fill="#fff">KEEL STUB</text>
  <!-- Fin below -->
  <rect x="5150" y="8600" width="700" height="1050" fill="url(#leadHatch)" stroke="#000" stroke-width="6"/>
  <text class="labelXs" x="5500" y="9200" text-anchor="middle" fill="#fff">FIN</text>
  <!-- Bulb -->
  <ellipse cx="5500" cy="9750" rx="900" ry="200" fill="url(#leadHatch)" stroke="#000" stroke-width="8"/>
  <text class="labelXs" x="5500" y="9790" text-anchor="middle" fill="#fff">BULB</text>

  <!-- BEAM DIMENSION at DWL -->
  <line class="dim" x1="2490" y1="6380" x2="8510" y2="6380"/>
  <line class="dim" x1="2490" y1="6330" x2="2490" y2="6430"/>
  <line class="dim" x1="8510" y1="6330" x2="8510" y2="6430"/>
  <text class="label" x="5500" y="6350" text-anchor="middle">BWL = 2900 mm (at DWL)</text>

  <!-- MAX BEAM at sheer -->
  <line class="dim" x1="3500" y1="4480" x2="7500" y2="4480"/>
  <line class="dim" x1="3500" y1="4430" x2="3500" y2="4530"/>
  <line class="dim" x1="7500" y1="4430" x2="7500" y2="4530"/>
  <text class="label" x="5500" y="4460" text-anchor="middle">BOA = 3400 mm (max at sheer)</text>

  <!-- FREEBOARD dimension -->
  <line class="dim" x1="2150" y1="4600" x2="2150" y2="6250"/>
  <text class="labelSm" x="2100" y="5430" text-anchor="end" transform="rotate(-90,2100,5430)">FREEBOARD 1100mm</text>

  <!-- Scale bar (bottom) -->
  <rect x="0" y="10200" width="3000" height="120" fill="#000"/>
  <rect x="0" y="10200" width="1500" height="120" fill="#fff"/>
  <text class="labelXs" x="0" y="10420">0</text>
  <text class="labelXs" x="1500" y="10420">1500 mm</text>
  <text class="labelXs" x="3000" y="10420">3000 mm</text>
  <text class="label" x="0" y="10600">SCALE BARS: Details 1–2 @ 1:10; Details 3 @ 1:5; Details 4–5 @ 1:10; Detail 6 @ 1:15</text>

  <text class="note" x="0" y="10800">All GRP laminates: vinylester resin preferred. Keel bolts: M36 Aquamet 22 SS. Saildrive rubber bellows: annual inspection mandatory. Lead ballast: keel 600kg steel fin + 2400kg lead bulb.</text>

</svg>
